nColumns=19
nRows=103
DataType=double
version=3
OpenSimVersion=4.1
endheader
time	ground_force_1_vx	ground_force_1_vy	ground_force_1_vz	ground_force_1_px	ground_force_1_py	ground_force_1_pz	ground_force_1_mx	ground_force_1_my	ground_force_1_mz	ground_force_2_vx	ground_force_2_vy	ground_force_2_vz	ground_force_2_px	ground_force_2_py	ground_force_2_pz	ground_force_2_mx	ground_force_2_my	ground_force_2_mz
0	-18.2736	87.4776	4.43987	0.118906	0.006	-0.217651	0	0.502778	0	0	0	0	0.744096	0	-0.277162	0	0	0
0.01	-25.8677	121.881	5.74288	0.124862	0.006	-0.218047	0	0.492143	0	0	0	0	0.744096	0	-0.277162	0	0	0
0.02	-34.7514	161.728	7.13619	0.130405	0.006	-0.218244	0	0.47776	0	0	0	0	0.744096	0	-0.277162	0	0	0
0.03	-44.8158	206.374	8.55249	0.135074	0.006	-0.218273	0	0.457556	0	0	0	0	0.744096	0	-0.277162	0	0	0
0.04	-55.8361	254.778	9.88555	0.139268	0.006	-0.218188	0	0.4299	0	0	0	0	0.744096	0	-0.277162	0	0	0
0.05	-67.4411	305.637	11.0005	0.143189	0.006	-0.218013	0	0.393471	0	0	0	0	0.744096	0	-0.277162	0	0	0
0.06	-79.1342	357.413	11.7486	0.146935	0.006	-0.217754	0	0.345939	0	0	0	0	0.744096	0	-0.277162	0	0	0
0.07	-90.3508	408.33	11.9843	0.150544	0.006	-0.21741	0	0.283201	0	0	0	0	0.744096	0	-0.277162	0	0	0
0.08	-100.496	456.499	11.5784	0.154022	0.006	-0.216982	0	0.201033	0	0	0	0	0.744096	0	-0.277162	0	0	0
0.09	-108.996	500.118	10.4404	0.157364	0.006	-0.216468	0	0.097086	0	0	0	0	0.744096	0	-0.277162	0	0	0
0.1	-115.405	537.702	8.54743	0.160569	0.006	-0.215869	0	-0.027998	0	0	0	0	0.744096	0	-0.277162	0	0	0
0.11	-119.469	568.274	5.96128	0.163651	0.006	-0.215189	0	-0.170269	0	0	0	0	0.744096	0	-0.277162	0	0	0
0.12	-121.128	591.396	2.83313	0.16663	0.006	-0.214436	0	-0.322743	0	0	0	0	0.744096	0	-0.277162	0	0	0
0.13	-120.474	607.067	-0.611291	0.169533	0.006	-0.213623	0	-0.476397	0	0	0	0	0.744096	0	-0.277162	0	0	0
0.14	-117.709	615.604	-4.11513	0.172388	0.006	-0.212764	0	-0.622715	0	0	0	0	0.744096	0	-0.277162	0	0	0
0.15	-113.116	617.546	-7.43823	0.175225	0.006	-0.211871	0	-0.755663	0	0	0	0	0.744096	0	-0.277162	0	0	0
0.16	-107.019	613.572	-10.3837	0.178078	0.006	-0.210955	0	-0.87175	0	0	0	0	0.744096	0	-0.277162	0	0	0
0.17	-99.7717	604.466	-12.8188	0.180983	0.006	-0.210022	0	-0.97014	0	0	0	0	0.744096	0	-0.277162	0	0	0
0.18	-91.7327	591.095	-14.6846	0.183982	0.006	-0.209075	0	-1.05225	0	0	0	0	0.744096	0	-0.277162	0	0	0
0.19	-83.2501	574.383	-15.9888	0.187123	0.006	-0.208116	0	-1.12077	0	0	0	0	0.744096	0	-0.277162	0	0	0
0.2	-74.6449	555.27	-16.79	0.190455	0.006	-0.207142	0	-1.17875	0	0	0	0	0.744096	0	-0.277162	0	0	0
0.21	-66.1975	534.684	-17.1779	0.194026	0.006	-0.206155	0	-1.22891	0	0	0	0	0.744096	0	-0.277162	0	0	0
0.22	-58.1368	513.516	-17.2518	0.197883	0.006	-0.205156	0	-1.27334	0	0	0	0	0.744096	0	-0.277162	0	0	0
0.23	-50.6356	492.585	-17.1017	0.202059	0.006	-0.204154	0	-1.31365	0	0	0	0	0.744096	0	-0.277162	0	0	0
0.24	-43.8078	472.622	-16.7952	0.206571	0.006	-0.203166	0	-1.35154	0	0	0	0	0.744096	0	-0.277162	0	0	0
0.25	-37.7072	454.257	-16.3774	0.21141	0.006	-0.202214	0	-1.38937	0	0	0	0	0.744096	0	-0.277162	0	0	0
0.26	-32.3307	438.008	-15.881	0.216537	0.006	-0.201328	0	-1.43021	0	0	0	0	0.744096	0	-0.277162	0	0	0
0.27	-27.6273	424.274	-15.3388	0.22188	0.006	-0.200536	0	-1.47729	0	0	0	0	0.744096	0	-0.277162	0	0	0
0.28	-23.5109	413.33	-14.7907	0.227344	0.006	-0.199865	0	-1.53329	0	0	0	0	0.744096	0	-0.277162	0	0	0
0.29	-19.873	405.329	-14.283	0.232819	0.006	-0.199335	0	-1.59945	0	0	0	0	0.744096	0	-0.277162	0	0	0
0.3	-16.5938	400.327	-13.863	0.238196	0.006	-0.198957	0	-1.67518	0	0	0	0	0.744096	0	-0.277162	0	0	0
0.31	-13.5495	398.296	-13.5736	0.243379	0.006	-0.198733	0	-1.75802	0	0	0	0	0.744096	0	-0.277162	0	0	0
0.32	-10.6169	399.145	-13.4476	0.248292	0.006	-0.198655	0	-1.84413	0	0	0	0	0.744096	0	-0.277162	0	0	0
0.33	-7.67615	402.733	-13.5059	0.252885	0.006	-0.198709	0	-1.929	0	0	0	0	0.744096	0	-0.277162	0	0	0
0.34	-4.61393	408.884	-13.7573	0.257136	0.006	-0.198876	0	-2.00807	0	0	0	0	0.744096	0	-0.277162	0	0	0
0.35	-1.32468	417.381	-14.2017	0.261044	0.006	-0.199131	0	-2.07716	0	0	0	0	0.744096	0	-0.277162	0	0	0
0.36	2.28702	427.979	-14.8336	0.264627	0.006	-0.19945	0	-2.13239	0	0	0	0	0.744096	0	-0.277162	0	0	0
0.37	6.30295	440.394	-15.645	0.267914	0.006	-0.199811	0	-2.16991	0	0	0	0	0.744096	0	-0.277162	0	0	0
0.38	10.7876	454.312	-16.6245	0.270943	0.006	-0.200191	0	-2.18585	0	0	0	0	0.744096	0	-0.277162	0	0	0
0.39	15.7845	469.385	-17.756	0.273752	0.006	-0.200575	0	-2.17635	0	0	0	0	0.744096	0	-0.277162	0	0	0
0.4	21.3128	485.223	-19.0151	0.276379	0.006	-0.200949	0	-2.13796	0	0	0	0	0.744096	0	-0.277162	0	0	0
0.41	27.3662	501.392	-20.3676	0.27886	0.006	-0.201306	0	-2.06805	0	0	0	0	0.744096	0	-0.277162	0	0	0
0.42	33.9129	517.395	-21.7675	0.281224	0.006	-0.201639	0	-1.96527	0	0	0	0	0.744096	0	-0.277162	0	0	0
0.43	40.8952	532.662	-23.1571	0.283501	0.006	-0.201947	0	-1.83007	0	0	0	0	0.744096	0	-0.277162	0	0	0
0.44	48.2281	546.548	-24.4664	0.28571	0.006	-0.20223	0	-1.66513	0	0	0	0	0.744096	0	-0.277162	0	0	0
0.45	55.7993	558.34	-25.6161	0.28787	0.006	-0.202489	0	-1.4755	0	0	0	0	0.744096	0	-0.277162	0	0	0
0.46	63.4695	567.299	-26.5228	0.289994	0.006	-0.202728	0	-1.26829	0	0	0	0	0.744096	0	-0.277162	0	0	0
0.47	71.0734	572.703	-27.1078	0.292093	0.006	-0.202949	0	-1.05182	0	0	0	0	0.744096	0	-0.277162	0	0	0
0.48	78.4195	573.883	-27.3044	0.294172	0.006	-0.203156	0	-0.834736	0	-1.34642	31.7097	-4.64477	0.768905	0.006	-0.288745	0	0.374665	0
0.49	85.2875	570.26	-27.062	0.296235	0.006	-0.203348	0	-0.625504	0	-4.20429	53.0905	-4.99801	0.79598	0.006	-0.300836	0	0.437332	0
0.5	91.4308	561.369	-26.3486	0.298286	0.006	-0.203529	0	-0.432029	0	-8.05806	79.4089	-5.2345	0.810916	0.006	-0.306996	0	0.468622	0
0.51	96.5847	546.883	-25.1533	0.30033	0.006	-0.203699	0	-0.26102	0	-13.0416	110.784	-5.2873	0.8208	0.006	-0.310704	0	0.486855	0
0.52	100.481	526.646	-23.4889	0.302374	0.006	-0.203861	0	-0.11757	0	-19.2606	147.004	-5.07499	0.828181	0.006	-0.313194	0	0.498273	0
0.53	102.865	500.709	-21.395	0.304427	0.006	-0.204015	0	-0.004869	0	-26.7697	187.416	-4.50414	0.834222	0.006	-0.315015	0	0.505247	0
0.54	103.512	469.36	-18.9397	0.306501	0.006	-0.204162	0	0.076203	0	-35.4881	230.973	-3.48435	0.839542	0.006	-0.316451	0	0.508638	0
0.55	102.253	433.15	-16.2199	0.30861	0.006	-0.204303	0	0.127376	0	-45.1074	276.466	-1.93991	0.844477	0.006	-0.317661	0	0.5074	0
0.56	99.0044	392.9	-13.3591	0.310772	0.006	-0.204436	0	0.152773	0	-55.1769	322.636	0.169971	0.849206	0.006	-0.318735	0	0.4981	0
0.57	93.8029	349.687	-10.4994	0.313007	0.006	-0.20456	0	0.15815	0	-65.2189	368.122	2.83648	0.853823	0.006	-0.319726	0	0.475675	0
0.58	86.8275	304.793	-7.78683	0.315346	0.006	-0.204673	0	0.149737	0	-74.7608	411.502	5.9997	0.858375	0.006	-0.320664	0	0.43437	0
0.59	78.3958	259.618	-5.35036	0.317827	0.006	-0.204771	0	0.133485	0	-83.3486	451.441	9.5511	0.862881	0.006	-0.321567	0	0.368946	0
0.6	68.942	215.571	-3.28045	0.320514	0.006	-0.204851	0	0.114132	0	-90.5881	486.845	13.3475	0.867352	0.006	-0.322448	0	0.276471	0
0.61	58.9644	173.95	-1.61556	0.323514	0.006	-0.204908	0	0.09489	0	-96.2019	516.968	17.2293	0.871798	0.006	-0.323312	0	0.15711	0
0.62	48.9632	135.83	-0.342404	0.327015	0.006	-0.204938	0	0.07748	0	-100.051	541.444	21.0244	0.876237	0.006	-0.324162	0	0.013422	0
0.63	39.3862	101.984	0.587197	0.331365	0.006	-0.204929	0	0.062211	0	-102.126	560.246	24.5533	0.88069	0.006	-0.324996	0	-0.150309	0
0.64	30.5853	72.8454	1.23191	0.33725	0.006	-0.204857	0	0.047984	0	-102.515	573.593	27.6475	0.885179	0.006	-0.32581	0	-0.327637	0
0.65	22.7916	48.5279	1.64651	0.346212	0.006	-0.204657	0	0.031766	0	-101.378	581.847	30.1713	0.889724	0.006	-0.326599	0	-0.509571	0
0.66	16.1163	28.8742	1.87877	0.362569	0.006	-0.204141	0	0.005535	0	-98.9205	585.454	32.0426	0.894342	0.006	-0.32736	0	-0.685086	0
0.67	0	0	0	0.395176	0	-0.204075	0	0	0	-95.3702	584.906	33.241	0.899049	0.006	-0.328096	0	-0.84246	0
0.68	0	0	0	0.430521	0	-0.204839	0	0	0	-90.9602	580.716	33.8019	0.903856	0.006	-0.32881	0	-0.971017	0
0.69	0	0	0	0.465866	0	-0.205603	0	0	0	-85.9164	573.424	33.8019	0.908771	0.006	-0.329509	0	-1.06253	0
0.7	0	0	0	0.501211	0	-0.206367	0	0	0	-80.4494	563.595	33.3397	0.913798	0.006	-0.330199	0	-1.1119	0
0.71	0	0	0	0.536556	0	-0.207131	0	0	0	-74.7459	551.815	32.5174	0.918935	0.006	-0.330887	0	-1.11732	0
0.72	0	0	0	0.571901	0	-0.207895	0	0	0	-68.9646	538.682	31.4278	0.924174	0.006	-0.331572	0	-1.07977	0
0.73	0	0	0	0.607246	0	-0.208659	0	0	0	-63.2339	524.791	30.1495	0.929497	0.006	-0.332253	0	-1.00219	0
0.74	0	0	0	0.642591	0	-0.209423	0	0	0	-57.6496	510.709	28.7488	0.934872	0.006	-0.332921	0	-0.888885	0
0.75	0	0	0	0.677936	0	-0.210187	0	0	0	-52.2757	496.958	27.2839	0.940259	0.006	-0.333568	0	-0.745109	0
0.76	0	0	0	0.713281	0	-0.210951	0	0	0	-47.1456	483.991	25.807	0.945606	0.006	-0.334181	0	-0.576693	0
0.77	0	0	0	0.748626	0	-0.211714	0	0	0	-42.2653	472.186	24.366	0.950853	0.006	-0.33475	0	-0.389864	0
0.78	0	0	0	0.783971	0	-0.212478	0	0	0	-37.6182	461.842	23.0044	0.955939	0.006	-0.335262	0	-0.191108	0
0.79	0	0	0	0.819316	0	-0.213242	0	0	0	-33.1693	453.182	21.76	0.960804	0.006	-0.335705	0	0.012959	0
0.8	0	0	0	0.854661	0	-0.214006	0	0	0	-28.8704	446.363	20.662	0.965396	0.006	-0.336071	0	0.216033	0
0.81	0	0	0	0.890006	0	-0.21477	0	0	0	-24.6647	441.484	19.7291	0.969677	0.006	-0.33635	0	0.412602	0
0.82	0	0	0	0.925351	0	-0.215534	0	0	0	-20.4893	438.601	18.9713	0.973622	0.006	-0.336537	0	0.597959	0
0.83	0	0	0	0.960696	0	-0.216298	0	0	0	-16.2771	437.738	18.3911	0.977221	0.006	-0.33663	0	0.768001	0
0.84	0	0	0	0.996041	0	-0.217062	0	0	0	-11.9583	438.894	17.9862	0.980479	0.006	-0.336631	0	0.919203	0
0.85	0	0	0	1.03139	0	-0.217826	0	0	0	-7.46159	442.047	17.7512	0.983414	0.006	-0.336541	0	1.04834	0
0.86	0	0	0	1.06673	0	-0.21859	0	0	0	-2.71534	447.148	17.6793	0.986049	0.006	-0.336368	0	1.15239	0
0.87	0	0	0	1.10208	0	-0.219354	0	0	0	2.34938	454.113	17.7599	0.988415	0.006	-0.336119	0	1.22877	0
0.88	0	0	0	1.13742	0	-0.220118	0	0	0	7.79486	462.805	17.9786	0.990547	0.006	-0.335807	0	1.27549	0
0.89	0	0	0	1.17277	0	-0.220882	0	0	0	13.6718	473.027	18.3148	0.992481	0.006	-0.335444	0	1.29164	0
0.9	0	0	0	1.20811	0	-0.221646	0	0	0	20.0148	484.505	18.7413	0.994251	0.006	-0.335045	0	1.27774	0
0.91	0	0	0	1.24346	0	-0.22241	0	0	0	26.8382	496.88	19.2234	0.995893	0.006	-0.33462	0	1.23594	0
0.92	0	0	0	1.2788	0	-0.223174	0	0	0	34.1316	509.707	19.7155	0.997438	0.006	-0.334183	0	1.17009	0
0.93	0	0	0	1.31415	0	-0.223938	0	0	0	41.854	522.457	20.1595	0.998915	0.006	-0.33374	0	1.08559	0
0.94	0	0	0	1.34949	0	-0.224702	0	0	0	49.9287	534.524	20.4882	1.00035	0.006	-0.3333	0	0.98893	0
0.95	0	0	0	1.38484	0	-0.225465	0	0	0	58.2402	545.243	20.6308	1.00176	0.006	-0.332865	0	0.887177	0
0.96	0	0	0	1.42018	0	-0.226229	0	0	0	66.6343	553.904	20.5218	1.00317	0.006	-0.332436	0	0.787435	0
0.97	0	0	0	1.45552	0	-0.226993	0	0	0	74.9203	559.779	20.1087	1.0046	0.006	-0.332014	0	0.696407	0
0.98	0	0	0	1.49087	0	-0.227757	0	0	0	82.8759	562.151	19.3573	1.00604	0.006	-0.3316	0	0.620015	0
0.99	-3.53819	25.8639	2.66342	1.5237	0.006	-0.229399	0	0.064832	0	90.2531	560.343	18.2553	1.0075	0.006	-0.331195	0	0.563237	0
1	-7.46744	46.9	3.40789	1.53868	0.006	-0.231623	0	0.036758	0	96.7845	553.759	16.8131	1.009	0.006	-0.330798	0	0.52991	0
1.01	-12.5028	73.3057	4.23954	1.54693	0.006	-0.23253	0	0.009842	0	102.192	541.918	15.0619	1.01053	0.006	-0.330409	0	0.522599	0
1.02	-18.7362	105.382	5.13322	1.55266	0.006	-0.232958	0	-0.026554	0	106.201	524.497	13.0514	1.0121	0.006	-0.330027	0	0.542458	0
